<?xml version="1.0" encoding="UTF-8" standalone="no"?>
<!-- Created with Inkscape (http://www.inkscape.org/) -->

<svg
   width="520"
   height="62"
   viewBox="0 0 137.58333 16.404167"
   version="1.1"
   id="svg1"
   inkscape:version="1.3.2 (091e20e, 2023-11-25, custom)"
   sodipodi:docname="A.Pak.svg"
   xmlns:inkscape="http://www.inkscape.org/namespaces/inkscape"
   xmlns:sodipodi="http://sodipodi.sourceforge.net/DTD/sodipodi-0.dtd"
   xmlns="http://www.w3.org/2000/svg"
   xmlns:svg="http://www.w3.org/2000/svg">
  <sodipodi:namedview
     id="namedview1"
     pagecolor="#000000"
     bordercolor="#eeeeee"
     borderopacity="1"
     inkscape:showpageshadow="0"
     inkscape:pageopacity="0"
     inkscape:pagecheckerboard="0"
     inkscape:deskcolor="#505050"
     inkscape:document-units="px"
     showborder="false"
     showguides="false"
     inkscape:zoom="1.3594416"
     inkscape:cx="360.4421"
     inkscape:cy="124.68354"
     inkscape:window-width="1920"
     inkscape:window-height="1001"
     inkscape:window-x="-9"
     inkscape:window-y="-9"
     inkscape:window-maximized="1"
     inkscape:current-layer="text1"
     inkscape:export-bgcolor="#ffffff00">
    <sodipodi:guide
       position="158.04231,172.89582"
       orientation="1,0"
       id="guide30"
       inkscape:locked="false" />
    <sodipodi:guide
       position="166.01104,172.89582"
       orientation="1,0"
       id="guide31"
       inkscape:locked="false" />
    <sodipodi:guide
       position="168.55635,170.42302"
       orientation="1,0"
       id="guide32"
       inkscape:locked="false" />
    <sodipodi:guide
       position="170.35764,167.50175"
       orientation="1,0"
       id="guide33"
       inkscape:locked="false" />
    <sodipodi:guide
       position="161.93857,162.10768"
       orientation="0,-1"
       id="guide34"
       inkscape:locked="false" />
  </sodipodi:namedview>
  <defs
     id="defs1">
    <inkscape:path-effect
       effect="bspline"
       id="path-effect14"
       is_visible="true"
       lpeversion="1.3"
       weight="33.333333"
       steps="2"
       helper_size="0"
       apply_no_weight="true"
       apply_with_weight="true"
       only_selected="false"
       uniform="false" />
    <inkscape:path-effect
       effect="fillet_chamfer"
       id="path-effect13"
       is_visible="true"
       lpeversion="1"
       nodesatellites_param="F,0,0,1,0,0,0,1 @ F,0,0,1,0,0,0,1 @ F,0,0,1,0,0,0,1 @ F,0,0,1,0,0,0,1 @ F,0,0,1,0,0,0,1 @ F,0,0,1,0,0,0,1 @ F,0,0,1,0,0,0,1 @ F,0,0,1,0,0,0,1 @ F,0,0,1,0,0,0,1 @ F,0,0,1,0,0,0,1 @ F,0,0,1,0,0,0,1 @ F,0,0,1,0,0,0,1 @ F,0,0,1,0,0,0,1 @ F,0,0,1,0,0,0,1 @ F,0,0,1,0,0,0,1 @ F,0,0,1,0,0,0,1 @ F,0,0,1,0,0,0,1 @ F,0,0,1,0,0,0,1 @ F,0,0,1,0,0,0,1 @ F,0,0,1,0,0,0,1 @ F,0,0,1,0,0,0,1 @ F,0,0,1,0,0,0,1 @ F,0,0,1,0,0,0,1 @ F,0,0,1,0,0,0,1 @ F,0,0,1,0,0,0,1 @ F,0,0,1,0,0,0,1 @ F,0,0,1,0,0,0,1 @ F,0,0,1,0,0,0,1 @ F,0,0,1,0,0,0,1 @ F,0,0,1,0,0,0,1 @ F,0,0,1,0,0,0,1 @ F,0,0,1,0,0,0,1 @ F,0,0,1,0,0,0,1 @ F,0,0,1,0,0,0,1 @ F,0,0,1,0,0,0,1 @ F,0,0,1,0,0,0,1 @ F,0,0,1,0,0,0,1 @ F,0,0,1,0,0,0,1 @ F,0,0,1,0,0,0,1 @ F,0,0,1,0,0,0,1 @ F,0,0,1,0,0,0,1 @ F,0,0,1,0,0,0,1 @ F,0,0,1,0,0,0,1 @ F,0,0,1,0,0,0,1 @ F,0,0,1,0,0,0,1 @ F,0,0,1,0,0,0,1 @ F,0,0,1,0,0,0,1 @ F,0,0,1,0,0,0,1 @ F,0,0,1,0,0,0,1 @ F,0,0,1,0,0,0,1"
       radius="0"
       unit="px"
       method="auto"
       mode="F"
       chamfer_steps="1"
       flexible="false"
       use_knot_distance="true"
       apply_no_radius="true"
       apply_with_radius="true"
       only_selected="false"
       hide_knots="false" />
    <inkscape:path-effect
       effect="spiro"
       id="path-effect12"
       is_visible="true"
       lpeversion="1" />
    <inkscape:path-effect
       effect="spiro"
       id="path-effect11"
       is_visible="true"
       lpeversion="1" />
    <inkscape:path-effect
       effect="spiro"
       id="path-effect10"
       is_visible="true"
       lpeversion="1" />
    <inkscape:path-effect
       effect="spiro"
       id="path-effect9"
       is_visible="true"
       lpeversion="1" />
    <inkscape:path-effect
       effect="spiro"
       id="path-effect8"
       is_visible="true"
       lpeversion="1" />
    <inkscape:path-effect
       effect="spiro"
       id="path-effect7"
       is_visible="true"
       lpeversion="1" />
    <inkscape:path-effect
       effect="spiro"
       id="path-effect6"
       is_visible="true"
       lpeversion="1" />
    <inkscape:path-effect
       effect="spiro"
       id="path-effect5"
       is_visible="true"
       lpeversion="1" />
    <inkscape:path-effect
       effect="spiro"
       id="path-effect4"
       is_visible="true"
       lpeversion="1" />
    <inkscape:path-effect
       effect="bspline"
       id="path-effect1"
       is_visible="true"
       lpeversion="1.3"
       weight="33.333333"
       steps="2"
       helper_size="0"
       apply_no_weight="true"
       apply_with_weight="true"
       only_selected="false"
       uniform="false" />
  </defs>
  <g
     inkscape:label="Layer 1"
     inkscape:groupmode="layer"
     id="layer1">
    <g
       id="text1"
       style="font-size:19.5792px;line-height:1;font-family:'Fira Sans';-inkscape-font-specification:'Fira Sans, Normal';letter-spacing:0px;fill:#fdfdfd;stroke-width:5.29167;stroke-miterlimit:0"
       aria-label="About. Paksitan"
       transform="translate(2.4771906,-34.680668)">
      <g
         id="g30"
         inkscape:export-filename="A.Pak.svg"
         inkscape:export-xdpi="300"
         inkscape:export-ydpi="300">
        <g
           id="g35"
           inkscape:export-filename="A.Pak.svg"
           inkscape:export-xdpi="300"
           inkscape:export-ydpi="300"
           transform="translate(-62.946123,-107.33606)">
          <g
             id="g34">
            <path
               style="font-weight:bold;-inkscape-font-specification:'Fira Sans, Bold'"
               d="m 116.66123,154.87705 q 0.72443,0 1.23349,0.52864 0.52864,0.50906 0.52864,1.23349 0,0.74401 -0.52864,1.27265 -0.50906,0.50906 -1.23349,0.50906 -0.74401,0 -1.27265,-0.50906 -0.50906,-0.52864 -0.50906,-1.27265 0,-0.72443 0.50906,-1.23349 0.52864,-0.52864 1.27265,-0.52864 z"
               id="path21"
               inkscape:export-filename="A.Pak.jpg"
               inkscape:export-xdpi="300"
               inkscape:export-ydpi="300" />
            <path
               style="font-weight:bold;-inkscape-font-specification:'Fira Sans, Bold'"
               d="m 114.33132,157.59856 q -0.56779,0.39159 -1.33138,0.60696 -0.74401,0.21537 -1.48802,0.21537 -3.40678,-0.0196 -3.40678,-3.75921 v -4.81648 h -1.46844 v -2.15371 h 1.46844 v -2.25161 l 3.09351,-0.35243 v 2.60404 h 2.38866 l -0.33284,2.15371 h -2.05582 v 4.77732 q 0,0.72444 0.23495,1.0377 0.23495,0.31327 0.74401,0.31327 0.52864,0 1.11601,-0.33285 z"
               id="path20" />
            <path
               style="font-weight:bold;-inkscape-font-specification:'Fira Sans, Bold'"
               d="m 105.38362,158.08804 h -2.68235 l -0.13706,-1.3118 q -1.13559,1.64465 -3.15225,1.64465 -1.429282,0 -2.173291,-0.86149 -0.724431,-0.86148 -0.724431,-2.40824 v -7.45967 h 3.093514 v 7.06809 q 0,0.76359 0.23495,1.07686 0.254528,0.29368 0.763588,0.29368 0.97896,0 1.68381,-1.21391 v -7.22472 h 3.09352 z"
               id="path19" />
            <path
               style="font-weight:bold;-inkscape-font-specification:'Fira Sans, Bold'"
               d="m 89.681104,147.35864 q 2.388663,0 3.739628,1.46844 1.350965,1.44886 1.350965,4.07248 0,1.66423 -0.626535,2.9173 -0.606955,1.23349 -1.762128,1.91876 -1.135594,0.68527 -2.70193,0.68527 -2.369083,0 -3.739627,-1.44886 -1.350965,-1.46844 -1.350965,-4.09205 0,-1.66424 0.606955,-2.89773 0.626535,-1.25306 1.762129,-1.93834 1.155172,-0.68527 2.721508,-0.68527 z m 0,2.27119 q -0.939801,0 -1.409702,0.80275 -0.469901,0.78316 -0.469901,2.4474 0,1.70339 0.450322,2.48655 0.469901,0.78317 1.429281,0.78317 0.939802,0 1.409703,-0.78317 0.469901,-0.80274 0.469901,-2.46697 0,-1.7034 -0.469901,-2.48656 -0.450322,-0.78317 -1.409703,-0.78317 z"
               id="path18" />
            <path
               style="font-weight:bold;-inkscape-font-specification:'Fira Sans, Bold'"
               d="m 79.382442,147.35864 q 1.860024,0 2.858563,1.46844 0.99854,1.44886 0.99854,4.07248 0,1.60549 -0.50906,2.85856 -0.48948,1.25307 -1.429281,1.95792 -0.920223,0.70485 -2.192871,0.70485 -0.841905,0 -1.546757,-0.35243 -0.685272,-0.35242 -1.174752,-0.97896 l -0.156633,0.99854 h -2.741088 v -14.52776 l 3.093513,-0.33285 v 5.52133 q 0.469901,-0.64611 1.194332,-1.01811 0.744009,-0.37201 1.605494,-0.37201 z m -1.174752,8.81064 q 1.820866,0 1.820866,-3.26972 0,-1.86003 -0.430743,-2.56488 -0.430742,-0.70485 -1.253069,-0.70485 -1.037697,0 -1.762128,1.21391 v 4.327 q 0.293688,0.4699 0.704852,0.74401 0.430742,0.25453 0.920222,0.25453 z"
               id="path17" />
            <path
               style="font-weight:bold;-inkscape-font-specification:'Fira Sans, Bold'"
               d="m 69.142517,158.08804 -0.704851,-2.9173 h -3.954998 l -0.685272,2.9173 h -3.328464 l 4.092052,-13.56838 h 3.896261 l 4.092053,13.56838 z m -4.111632,-5.24722 h 2.858564 l -1.429282,-5.99124 z"
               id="path15" />
            <path
               d="m 194.03827,147.53485 q 1.40971,0 2.19287,0.84191 0.80275,0.84191 0.80275,2.31035 v 7.40093 h -1.80129 v -7.14641 q 0,-1.09643 -0.41116,-1.54675 -0.41116,-0.45032 -1.21391,-0.45032 -0.82233,0 -1.44886,0.4699 -0.62653,0.4699 -1.17475,1.35096 v 7.32262 h -1.80129 V 147.7698 h 1.54676 l 0.15663,1.52718 q 0.54822,-0.82232 1.35097,-1.29223 0.82232,-0.4699 1.80128,-0.4699 z"
               id="path30" />
            <path
               d="m 185.48215,155.6798 q 0,0.62654 0.21537,0.9398 0.21537,0.29369 0.64611,0.45032 l -0.41116,1.25307 q -0.80275,-0.0979 -1.29223,-0.45032 -0.48948,-0.35242 -0.72443,-1.09643 -1.0377,1.54675 -3.07393,1.54675 -1.52718,0 -2.40825,-0.86148 -0.88106,-0.86149 -0.88106,-2.25161 0,-1.64465 1.17475,-2.52572 1.19433,-0.88106 3.36763,-0.88106 h 1.58591 v -0.76359 q 0,-1.09643 -0.52864,-1.56634 -0.52864,-0.4699 -1.62507,-0.4699 -1.1356,0 -2.78025,0.54822 l -0.45032,-1.3118 q 1.91876,-0.70486 3.56342,-0.70486 1.82086,0 2.7215,0.90065 0.90065,0.88106 0.90065,2.52571 z m -4.22911,1.29223 q 1.54676,0 2.42782,-1.6055 v -2.36908 h -1.35096 q -2.85857,0 -2.85857,2.11455 0,0.92023 0.45032,1.39013 0.45033,0.4699 1.33139,0.4699 z"
               id="path29" />
            <path
               d="m 176.80856,157.61814 q -1.01812,0.70485 -2.31035,0.70485 -1.3118,0 -2.05581,-0.74401 -0.72443,-0.76358 -0.72443,-2.19287 v -6.22618 h -1.80129 v -1.39013 h 1.80129 v -2.32992 l 1.80128,-0.21537 v 2.54529 h 2.4474 l -0.19579,1.39013 h -2.25161 v 6.14787 q 0,0.80274 0.27411,1.17475 0.29369,0.35242 0.95938,0.35242 0.60696,0 1.37055,-0.41116 z"
               id="path28" />
            <path
               d="m 158.32581,142.15057 q 0.56779,0 0.92022,0.35242 0.35242,0.35243 0.35242,0.88107 0,0.52863 -0.35242,0.88106 -0.35243,0.33285 -0.92022,0.33285 -0.54822,0 -0.90065,-0.33285 -0.35242,-0.35243 -0.35242,-0.88106 0,-0.52864 0.35242,-0.88107 0.35243,-0.35242 0.90065,-0.35242 z"
               id="path27" />
            <path
               d="m 158.87403,147.7698 v 10.31824 h -1.80129 V 147.7698 Z"
               id="path26" />
            <path
               d="m 164.94357,147.53485 q 1.05727,0 1.89918,0.29369 0.8419,0.29369 1.60549,0.88107 l -0.76359,1.13559 q -0.70485,-0.45032 -1.35096,-0.66569 -0.62654,-0.21537 -1.33139,-0.21537 -0.88106,0 -1.39012,0.372 -0.50906,0.35243 -0.50906,0.97896 0,0.62653 0.4699,0.97896 0.48948,0.35243 1.74255,0.68527 1.72297,0.43074 2.56488,1.17475 0.86148,0.74401 0.86148,2.03624 0,1.52718 -1.19433,2.32993 -1.17475,0.80274 -2.87814,0.80274 -2.34951,0 -3.89626,-1.35096 l 0.95938,-1.09644 q 1.3118,0.99854 2.89772,0.99854 1.01812,0 1.60549,-0.41116 0.60696,-0.43074 0.60696,-1.15517 0,-0.52864 -0.21537,-0.84191 -0.21537,-0.33285 -0.74401,-0.5678 -0.52864,-0.25453 -1.54676,-0.52863 -1.64465,-0.43075 -2.38866,-1.15518 -0.72443,-0.72443 -0.72443,-1.84044 0,-0.80275 0.4699,-1.44886 0.48948,-0.6657 1.33138,-1.01812 0.86149,-0.37201 1.91877,-0.37201 z"
               id="path25" />
            <path
               d="m 154.74279,147.7698 -3.79836,4.56196 4.22911,5.75628 h -2.15372 l -4.09205,-5.63881 3.79837,-4.67943 z"
               id="path24" />
            <path
               d="m 148.8103,143.40364 v 14.6844 h -1.80129 v -14.46903 z"
               id="path23" />
            <path
               d="m 143.30853,155.6798 q 0,0.62654 0.21537,0.9398 0.21537,0.29369 0.64611,0.45032 l -0.41116,1.25307 q -0.80275,-0.0979 -1.29223,-0.45032 -0.48948,-0.35242 -0.72443,-1.09643 -1.0377,1.54675 -3.07394,1.54675 -1.52717,0 -2.40824,-0.86148 -0.88106,-0.86149 -0.88106,-2.25161 0,-1.64465 1.17475,-2.52572 1.19433,-0.88106 3.36762,-0.88106 h 1.58592 v -0.76359 q 0,-1.09643 -0.52864,-1.56634 -0.52864,-0.4699 -1.62507,-0.4699 -1.1356,0 -2.78025,0.54822 l -0.45032,-1.3118 q 1.91876,-0.70486 3.56341,-0.70486 1.82087,0 2.72151,0.90065 0.90065,0.88106 0.90065,2.52571 z m -4.22911,1.29223 q 1.54675,0 2.42782,-1.6055 v -2.36908 h -1.35097 q -2.85856,0 -2.85856,2.11455 0,0.92023 0.45032,1.39013 0.45032,0.4699 1.33139,0.4699 z"
               id="path22" />
            <path
               d="m 129.70096,144.59797 q 2.50614,0 3.87668,1.05728 1.37054,1.0377 1.37054,3.11309 0,2.21245 -1.42928,3.28931 -1.42928,1.07686 -3.79836,1.07686 h -1.70339 v 4.95353 h -1.86003 v -13.49007 z m -0.0587,7.0681 q 1.62507,0 2.46698,-0.62654 0.86149,-0.62653 0.86149,-2.25161 0,-1.44886 -0.86149,-2.09497 -0.84191,-0.64612 -2.42782,-0.64612 h -1.66423 v 5.61924 z"
               id="path16" />
          </g>
        </g>
      </g>
    </g>
    <rect
       style="fill:none;fill-opacity:1;stroke:#000000;stroke-width:3.175;stroke-linecap:butt;stroke-miterlimit:0;stroke-dasharray:none;stroke-opacity:1"
       id="rect2"
       width="0"
       height="0.24649444"
       x="18.441307"
       y="86.730415"
       ry="0" />
  </g>
</svg>
